<mxfile host="app.diagrams.net" modified="2020-08-14T17:03:00.981Z" agent="5.0 (Windows NT 10.0; Win64; x64) AppleWebKit/537.36 (KHTML, like Gecko) Chrome/83.0.4103.116 Safari/537.36 OPR/69.0.3686.95" etag="aTzCJyJ_MOoX8RZWEzyn" version="13.6.2" type="github">
  <diagram id="_t2A-_-KldA0Skmzdmog" name="Page-1">
    <mxGraphModel dx="1183" dy="1746" grid="0" gridSize="10" guides="1" tooltips="1" connect="1" arrows="1" fold="1" page="1" pageScale="1" pageWidth="850" pageHeight="1100" math="0" shadow="0">
      <root>
        <mxCell id="0" />
        <mxCell id="1" parent="0" />
        <mxCell id="kXg5C5y5iRPHgZZ98RsH-56" value="" style="rounded=0;whiteSpace=wrap;html=1;fillColor=#FFFFFF;" parent="1" vertex="1">
          <mxGeometry x="150" y="-172" width="898" height="765" as="geometry" />
        </mxCell>
        <mxCell id="kXg5C5y5iRPHgZZ98RsH-3" value="" style="rounded=0;whiteSpace=wrap;html=1;fillColor=#B3B3B3;" parent="1" vertex="1">
          <mxGeometry x="151" y="-1070" width="898" height="864" as="geometry" />
        </mxCell>
        <mxCell id="kXg5C5y5iRPHgZZ98RsH-5" value="" style="rounded=0;whiteSpace=wrap;html=1;fillColor=#FFFFFF;" parent="1" vertex="1">
          <mxGeometry x="150" y="-985" width="898" height="765" as="geometry" />
        </mxCell>
        <mxCell id="kXg5C5y5iRPHgZZ98RsH-45" value="SIGN IN" style="text;html=1;strokeColor=none;fillColor=none;align=center;verticalAlign=middle;whiteSpace=wrap;rounded=0;" parent="1" vertex="1">
          <mxGeometry x="960" y="-953.5" width="53" height="20" as="geometry" />
        </mxCell>
        <mxCell id="2BnCc7chY5cuEa0IheuL-11" value="" style="group" vertex="1" connectable="0" parent="1">
          <mxGeometry x="212" y="-897" width="750" height="569" as="geometry" />
        </mxCell>
        <mxCell id="kXg5C5y5iRPHgZZ98RsH-16" value="&lt;font style=&quot;font-size: 24px&quot;&gt;&lt;b&gt;CREATE A NEW ACCOUNT&lt;/b&gt;&lt;/font&gt;" style="text;html=1;strokeColor=none;fillColor=none;align=center;verticalAlign=middle;whiteSpace=wrap;rounded=0;" parent="2BnCc7chY5cuEa0IheuL-11" vertex="1">
          <mxGeometry width="372.81019108280253" height="20" as="geometry" />
        </mxCell>
        <mxCell id="kXg5C5y5iRPHgZZ98RsH-18" value="" style="rounded=1;whiteSpace=wrap;html=1;fillColor=#FFFFFF;" parent="2BnCc7chY5cuEa0IheuL-11" vertex="1">
          <mxGeometry x="184.5503184713376" y="125" width="267.087898089172" height="29" as="geometry" />
        </mxCell>
        <mxCell id="kXg5C5y5iRPHgZZ98RsH-19" value="" style="rounded=1;whiteSpace=wrap;html=1;fillColor=#FFFFFF;" parent="2BnCc7chY5cuEa0IheuL-11" vertex="1">
          <mxGeometry x="182.69554140127389" y="182" width="267.087898089172" height="29" as="geometry" />
        </mxCell>
        <mxCell id="kXg5C5y5iRPHgZZ98RsH-20" value="" style="rounded=1;whiteSpace=wrap;html=1;fillColor=#FFFFFF;" parent="2BnCc7chY5cuEa0IheuL-11" vertex="1">
          <mxGeometry x="186.40509554140127" y="233" width="267.087898089172" height="29" as="geometry" />
        </mxCell>
        <mxCell id="kXg5C5y5iRPHgZZ98RsH-21" value="" style="rounded=1;whiteSpace=wrap;html=1;fillColor=#FFFFFF;" parent="2BnCc7chY5cuEa0IheuL-11" vertex="1">
          <mxGeometry x="186.40509554140127" y="328.5" width="267.087898089172" height="29" as="geometry" />
        </mxCell>
        <mxCell id="kXg5C5y5iRPHgZZ98RsH-22" value="" style="rounded=1;whiteSpace=wrap;html=1;fillColor=#FFFFFF;" parent="2BnCc7chY5cuEa0IheuL-11" vertex="1">
          <mxGeometry x="186.40509554140127" y="374" width="267.087898089172" height="29" as="geometry" />
        </mxCell>
        <mxCell id="kXg5C5y5iRPHgZZ98RsH-23" value="" style="rounded=1;whiteSpace=wrap;html=1;fillColor=#FFFFFF;" parent="2BnCc7chY5cuEa0IheuL-11" vertex="1">
          <mxGeometry x="186.40509554140127" y="427" width="267.087898089172" height="29" as="geometry" />
        </mxCell>
        <mxCell id="kXg5C5y5iRPHgZZ98RsH-24" value="FIRST NAME" style="text;html=1;strokeColor=none;fillColor=none;align=center;verticalAlign=middle;whiteSpace=wrap;rounded=0;fontStyle=1" parent="2BnCc7chY5cuEa0IheuL-11" vertex="1">
          <mxGeometry x="30.603821656050954" y="129.25" width="121.48789808917198" height="20.5" as="geometry" />
        </mxCell>
        <mxCell id="kXg5C5y5iRPHgZZ98RsH-25" value="LAST NAME" style="text;html=1;strokeColor=none;fillColor=none;align=center;verticalAlign=middle;whiteSpace=wrap;rounded=0;fontStyle=1" parent="2BnCc7chY5cuEa0IheuL-11" vertex="1">
          <mxGeometry x="50.07898089171975" y="186.25" width="73.26369426751593" height="20.5" as="geometry" />
        </mxCell>
        <mxCell id="kXg5C5y5iRPHgZZ98RsH-26" value="&lt;font style=&quot;font-size: 14px&quot;&gt;YOUR EMAIL&lt;/font&gt;" style="text;html=1;strokeColor=none;fillColor=none;align=center;verticalAlign=middle;whiteSpace=wrap;rounded=0;fontStyle=1" parent="2BnCc7chY5cuEa0IheuL-11" vertex="1">
          <mxGeometry x="46.36942675159236" y="237.25" width="89.95668789808917" height="20.5" as="geometry" />
        </mxCell>
        <mxCell id="kXg5C5y5iRPHgZZ98RsH-27" value="PHONE NUMBER" style="text;html=1;strokeColor=none;fillColor=none;align=center;verticalAlign=middle;whiteSpace=wrap;rounded=0;fontStyle=1" parent="2BnCc7chY5cuEa0IheuL-11" vertex="1">
          <mxGeometry x="50.07898089171975" y="337" width="93.66624203821657" height="20.5" as="geometry" />
        </mxCell>
        <mxCell id="kXg5C5y5iRPHgZZ98RsH-28" value="PASSWORD" style="text;html=1;strokeColor=none;fillColor=none;align=center;verticalAlign=middle;whiteSpace=wrap;rounded=0;fontStyle=1" parent="2BnCc7chY5cuEa0IheuL-11" vertex="1">
          <mxGeometry x="50.07898089171975" y="388" width="76.04585987261147" height="20.5" as="geometry" />
        </mxCell>
        <mxCell id="kXg5C5y5iRPHgZZ98RsH-29" value="CONFIRM PASSWORD" style="text;html=1;strokeColor=none;fillColor=none;align=center;verticalAlign=middle;whiteSpace=wrap;rounded=0;fontStyle=1" parent="2BnCc7chY5cuEa0IheuL-11" vertex="1">
          <mxGeometry x="34" y="433" width="143.13" height="20.5" as="geometry" />
        </mxCell>
        <mxCell id="kXg5C5y5iRPHgZZ98RsH-33" value="" style="rounded=1;whiteSpace=wrap;html=1;fillColor=#FFFFFF;arcSize=0;" parent="2BnCc7chY5cuEa0IheuL-11" vertex="1">
          <mxGeometry x="211.11464968152865" y="494" width="12.056050955414012" height="10" as="geometry" />
        </mxCell>
        <mxCell id="kXg5C5y5iRPHgZZ98RsH-39" value="" style="rounded=1;whiteSpace=wrap;html=1;strokeColor=#006EAF;fontColor=#ffffff;fillColor=#CCCCCC;" parent="2BnCc7chY5cuEa0IheuL-11" vertex="1">
          <mxGeometry x="186.40509554140127" y="532" width="87.17452229299363" height="37" as="geometry" />
        </mxCell>
        <mxCell id="kXg5C5y5iRPHgZZ98RsH-40" value="PROCEED" style="text;html=1;strokeColor=none;fillColor=none;align=center;verticalAlign=middle;whiteSpace=wrap;rounded=0;" parent="2BnCc7chY5cuEa0IheuL-11" vertex="1">
          <mxGeometry x="213.29936305732485" y="540.5" width="37.09554140127389" height="20" as="geometry" />
        </mxCell>
        <mxCell id="jn8CqBZBCgoaTjJ1yERz-1" value="" style="rounded=1;whiteSpace=wrap;html=1;strokeColor=#006EAF;fontColor=#ffffff;fillColor=#E6E6E6;" parent="2BnCc7chY5cuEa0IheuL-11" vertex="1">
          <mxGeometry x="375.12866242038217" y="532" width="87.17452229299363" height="37" as="geometry" />
        </mxCell>
        <mxCell id="jn8CqBZBCgoaTjJ1yERz-2" value="&lt;font style=&quot;font-size: 14px&quot;&gt;Go Back&lt;/font&gt;" style="text;html=1;strokeColor=none;fillColor=none;align=center;verticalAlign=middle;whiteSpace=wrap;rounded=0;" parent="2BnCc7chY5cuEa0IheuL-11" vertex="1">
          <mxGeometry x="389.50318471337584" y="540.5" width="58.42547770700637" height="20" as="geometry" />
        </mxCell>
        <mxCell id="jn8CqBZBCgoaTjJ1yERz-3" value="&lt;font style=&quot;font-size: 14px&quot;&gt;Username&lt;/font&gt;" style="text;html=1;strokeColor=none;fillColor=none;align=center;verticalAlign=middle;whiteSpace=wrap;rounded=0;fontStyle=1" parent="2BnCc7chY5cuEa0IheuL-11" vertex="1">
          <mxGeometry x="39.87770700636943" y="294" width="83.46496815286625" height="20.5" as="geometry" />
        </mxCell>
        <mxCell id="jn8CqBZBCgoaTjJ1yERz-4" value="" style="rounded=1;whiteSpace=wrap;html=1;fillColor=#FFFFFF;" parent="2BnCc7chY5cuEa0IheuL-11" vertex="1">
          <mxGeometry x="186.40509554140127" y="283.5" width="267.087898089172" height="29" as="geometry" />
        </mxCell>
        <mxCell id="2BnCc7chY5cuEa0IheuL-15" value="" style="outlineConnect=0;fontColor=#232F3E;gradientColor=none;strokeColor=none;dashed=0;verticalLabelPosition=bottom;verticalAlign=top;align=center;html=1;fontSize=12;fontStyle=0;aspect=fixed;pointerEvents=1;shape=mxgraph.aws4.container_registry_image;fillColor=#999999;" vertex="1" parent="2BnCc7chY5cuEa0IheuL-11">
          <mxGeometry x="512" y="150" width="238" height="238" as="geometry" />
        </mxCell>
        <mxCell id="2BnCc7chY5cuEa0IheuL-14" value="" style="line;strokeWidth=2;direction=south;html=1;" vertex="1" parent="1">
          <mxGeometry x="702" y="-807" width="10" height="467" as="geometry" />
        </mxCell>
        <mxCell id="2BnCc7chY5cuEa0IheuL-16" value="" style="html=1;shadow=0;dashed=0;align=center;verticalAlign=middle;shape=mxgraph.arrows2.arrow;dy=0;dx=30;notch=30;fillColor=#999999;" vertex="1" parent="1">
          <mxGeometry x="986" y="-674" width="63" height="60" as="geometry" />
        </mxCell>
        <mxCell id="2BnCc7chY5cuEa0IheuL-20" value="" style="group" vertex="1" connectable="0" parent="1">
          <mxGeometry x="542" y="-86" width="477" height="489" as="geometry" />
        </mxCell>
        <mxCell id="2BnCc7chY5cuEa0IheuL-21" value="&lt;font style=&quot;font-size: 36px&quot;&gt;Sign In&lt;/font&gt;" style="text;html=1;strokeColor=none;fillColor=none;align=center;verticalAlign=middle;whiteSpace=wrap;rounded=0;" vertex="1" parent="2BnCc7chY5cuEa0IheuL-20">
          <mxGeometry x="37" width="147.85987261146497" height="20" as="geometry" />
        </mxCell>
        <mxCell id="2BnCc7chY5cuEa0IheuL-22" value="" style="group" vertex="1" connectable="0" parent="2BnCc7chY5cuEa0IheuL-20">
          <mxGeometry x="25.318471337579616" y="28" width="451.68152866242036" height="461" as="geometry" />
        </mxCell>
        <mxCell id="2BnCc7chY5cuEa0IheuL-23" value="" style="rounded=1;whiteSpace=wrap;html=1;fillColor=#FFFFFF;" vertex="1" parent="2BnCc7chY5cuEa0IheuL-22">
          <mxGeometry x="29.369426751592353" y="75" width="422.31210191082806" height="51" as="geometry" />
        </mxCell>
        <mxCell id="2BnCc7chY5cuEa0IheuL-24" value="&lt;font color=&quot;#0000ff&quot;&gt;Or Create an account&lt;/font&gt;" style="text;html=1;strokeColor=none;fillColor=none;align=center;verticalAlign=middle;whiteSpace=wrap;rounded=0;" vertex="1" parent="2BnCc7chY5cuEa0IheuL-22">
          <mxGeometry x="22.280254777070066" width="131.656050955414" height="20" as="geometry" />
        </mxCell>
        <mxCell id="2BnCc7chY5cuEa0IheuL-25" value="&lt;b&gt;Username / Email address&lt;/b&gt;" style="text;html=1;strokeColor=none;fillColor=none;align=center;verticalAlign=middle;whiteSpace=wrap;rounded=0;" vertex="1" parent="2BnCc7chY5cuEa0IheuL-22">
          <mxGeometry y="53" width="208.62420382165604" height="20" as="geometry" />
        </mxCell>
        <mxCell id="2BnCc7chY5cuEa0IheuL-26" value="" style="rounded=1;whiteSpace=wrap;html=1;fillColor=#FFFFFF;" vertex="1" parent="2BnCc7chY5cuEa0IheuL-22">
          <mxGeometry x="28.35668789808917" y="187" width="422.31210191082806" height="51" as="geometry" />
        </mxCell>
        <mxCell id="2BnCc7chY5cuEa0IheuL-27" value="&lt;b&gt;Password&lt;/b&gt;" style="text;html=1;strokeColor=none;fillColor=none;align=center;verticalAlign=middle;whiteSpace=wrap;rounded=0;" vertex="1" parent="2BnCc7chY5cuEa0IheuL-22">
          <mxGeometry x="29.369426751592353" y="165" width="53.675159235668794" height="20" as="geometry" />
        </mxCell>
        <mxCell id="2BnCc7chY5cuEa0IheuL-28" value="" style="rounded=0;whiteSpace=wrap;html=1;fontColor=#ffffff;strokeColor=#CCCCCC;" vertex="1" parent="2BnCc7chY5cuEa0IheuL-22">
          <mxGeometry x="33.42038216560509" y="295" width="117.47770700636941" height="44" as="geometry" />
        </mxCell>
        <mxCell id="2BnCc7chY5cuEa0IheuL-29" value="Sign In" style="text;html=1;strokeColor=none;fillColor=none;align=center;verticalAlign=middle;whiteSpace=wrap;rounded=0;" vertex="1" parent="2BnCc7chY5cuEa0IheuL-22">
          <mxGeometry x="53.675159235668794" y="307" width="66.84076433121018" height="20" as="geometry" />
        </mxCell>
        <mxCell id="2BnCc7chY5cuEa0IheuL-30" value="&lt;font color=&quot;#0000ff&quot;&gt;Forgot Username?&lt;/font&gt;" style="text;html=1;strokeColor=none;fillColor=none;align=center;verticalAlign=middle;whiteSpace=wrap;rounded=0;" vertex="1" parent="2BnCc7chY5cuEa0IheuL-22">
          <mxGeometry x="28.35668789808917" y="441" width="131.656050955414" height="20" as="geometry" />
        </mxCell>
        <mxCell id="2BnCc7chY5cuEa0IheuL-31" value="&lt;font color=&quot;#0000ff&quot;&gt;Forgot Password?&lt;/font&gt;" style="text;html=1;strokeColor=none;fillColor=none;align=center;verticalAlign=middle;whiteSpace=wrap;rounded=0;" vertex="1" parent="2BnCc7chY5cuEa0IheuL-22">
          <mxGeometry x="28.35668789808917" y="380" width="131.656050955414" height="20" as="geometry" />
        </mxCell>
        <mxCell id="2BnCc7chY5cuEa0IheuL-32" value="&lt;font color=&quot;#0000ff&quot;&gt;Show password&lt;/font&gt;" style="text;html=1;strokeColor=none;fillColor=none;align=center;verticalAlign=middle;whiteSpace=wrap;rounded=0;" vertex="1" parent="2BnCc7chY5cuEa0IheuL-22">
          <mxGeometry x="314.96178343949043" y="253" width="131.656050955414" height="20" as="geometry" />
        </mxCell>
        <mxCell id="2BnCc7chY5cuEa0IheuL-33" value="" style="line;strokeWidth=2;direction=south;html=1;" vertex="1" parent="1">
          <mxGeometry x="537" y="-90" width="10" height="516" as="geometry" />
        </mxCell>
        <mxCell id="2BnCc7chY5cuEa0IheuL-58" value="" style="outlineConnect=0;fontColor=#232F3E;gradientColor=none;strokeColor=none;dashed=0;verticalLabelPosition=bottom;verticalAlign=top;align=center;html=1;fontSize=12;fontStyle=0;aspect=fixed;pointerEvents=1;shape=mxgraph.aws4.container_registry_image;fillColor=#999999;" vertex="1" parent="1">
          <mxGeometry x="251" y="-20" width="280" height="280" as="geometry" />
        </mxCell>
        <mxCell id="2BnCc7chY5cuEa0IheuL-59" value="" style="html=1;shadow=0;dashed=0;align=center;verticalAlign=middle;shape=mxgraph.arrows2.arrow;dy=0;dx=30;notch=30;fillColor=#999999;direction=west;" vertex="1" parent="1">
          <mxGeometry x="172" y="82" width="63.5" height="60" as="geometry" />
        </mxCell>
        <mxCell id="2BnCc7chY5cuEa0IheuL-60" value="" style="group" vertex="1" connectable="0" parent="1">
          <mxGeometry x="150" y="-1025" width="898" height="40" as="geometry" />
        </mxCell>
        <mxCell id="2BnCc7chY5cuEa0IheuL-1" value="" style="group" vertex="1" connectable="0" parent="2BnCc7chY5cuEa0IheuL-60">
          <mxGeometry width="898" height="40" as="geometry" />
        </mxCell>
        <mxCell id="kXg5C5y5iRPHgZZ98RsH-46" value="" style="rounded=0;whiteSpace=wrap;html=1;fillColor=#FFFFFF;" parent="2BnCc7chY5cuEa0IheuL-1" vertex="1">
          <mxGeometry width="898" height="40" as="geometry" />
        </mxCell>
        <mxCell id="kXg5C5y5iRPHgZZ98RsH-49" value="&lt;font style=&quot;font-size: 12px&quot;&gt;&lt;b&gt;Home&lt;/b&gt;&lt;/font&gt;" style="text;html=1;strokeColor=none;fillColor=none;align=center;verticalAlign=middle;whiteSpace=wrap;rounded=0;" parent="2BnCc7chY5cuEa0IheuL-1" vertex="1">
          <mxGeometry x="465" y="13" width="40" height="20" as="geometry" />
        </mxCell>
        <mxCell id="kXg5C5y5iRPHgZZ98RsH-50" value="&lt;font style=&quot;font-size: 12px&quot;&gt;&lt;b&gt;About Us&lt;/b&gt;&lt;/font&gt;" style="text;html=1;strokeColor=none;fillColor=none;align=center;verticalAlign=middle;whiteSpace=wrap;rounded=0;" parent="2BnCc7chY5cuEa0IheuL-1" vertex="1">
          <mxGeometry x="511" y="13" width="65" height="20" as="geometry" />
        </mxCell>
        <mxCell id="kXg5C5y5iRPHgZZ98RsH-51" value="&lt;font style=&quot;font-size: 12px&quot;&gt;&lt;b&gt;Fun Stuff&lt;/b&gt;&lt;/font&gt;" style="text;html=1;strokeColor=none;fillColor=none;align=center;verticalAlign=middle;whiteSpace=wrap;rounded=0;" parent="2BnCc7chY5cuEa0IheuL-1" vertex="1">
          <mxGeometry x="588" y="13" width="58" height="20" as="geometry" />
        </mxCell>
        <mxCell id="kXg5C5y5iRPHgZZ98RsH-52" value="&lt;b&gt;Agency Information&lt;/b&gt;" style="text;html=1;strokeColor=none;fillColor=none;align=center;verticalAlign=middle;whiteSpace=wrap;rounded=0;" parent="2BnCc7chY5cuEa0IheuL-1" vertex="1">
          <mxGeometry x="651" y="13" width="135" height="20" as="geometry" />
        </mxCell>
        <mxCell id="kXg5C5y5iRPHgZZ98RsH-53" value="&lt;b&gt;Sign Up / Sign In&lt;/b&gt;" style="text;html=1;strokeColor=none;fillColor=none;align=center;verticalAlign=middle;whiteSpace=wrap;rounded=0;" parent="2BnCc7chY5cuEa0IheuL-1" vertex="1">
          <mxGeometry x="786" y="13" width="107" height="20" as="geometry" />
        </mxCell>
        <mxCell id="kXg5C5y5iRPHgZZ98RsH-57" value="&lt;font style=&quot;font-size: 36px&quot; face=&quot;Georgia&quot;&gt;A&lt;/font&gt;&lt;font style=&quot;font-size: 24px&quot; face=&quot;Georgia&quot;&gt;ce&lt;/font&gt;" style="text;html=1;strokeColor=none;fillColor=none;align=center;verticalAlign=middle;whiteSpace=wrap;rounded=0;" parent="2BnCc7chY5cuEa0IheuL-1" vertex="1">
          <mxGeometry x="28" y="1" width="41" height="38" as="geometry" />
        </mxCell>
        <mxCell id="kXg5C5y5iRPHgZZ98RsH-55" style="edgeStyle=orthogonalEdgeStyle;rounded=0;orthogonalLoop=1;jettySize=auto;html=1;exitX=0.5;exitY=1;exitDx=0;exitDy=0;" parent="2BnCc7chY5cuEa0IheuL-1" source="kXg5C5y5iRPHgZZ98RsH-51" target="kXg5C5y5iRPHgZZ98RsH-51" edge="1">
          <mxGeometry relative="1" as="geometry" />
        </mxCell>
        <mxCell id="2BnCc7chY5cuEa0IheuL-61" value="" style="group" vertex="1" connectable="0" parent="1">
          <mxGeometry x="151" y="-169" width="898" height="40" as="geometry" />
        </mxCell>
        <mxCell id="2BnCc7chY5cuEa0IheuL-62" value="" style="group" vertex="1" connectable="0" parent="2BnCc7chY5cuEa0IheuL-61">
          <mxGeometry width="898" height="40" as="geometry" />
        </mxCell>
        <mxCell id="2BnCc7chY5cuEa0IheuL-63" value="" style="rounded=0;whiteSpace=wrap;html=1;fillColor=#FFFFFF;" vertex="1" parent="2BnCc7chY5cuEa0IheuL-62">
          <mxGeometry width="898" height="40" as="geometry" />
        </mxCell>
        <mxCell id="2BnCc7chY5cuEa0IheuL-64" value="&lt;font style=&quot;font-size: 12px&quot;&gt;&lt;b&gt;Home&lt;/b&gt;&lt;/font&gt;" style="text;html=1;strokeColor=none;fillColor=none;align=center;verticalAlign=middle;whiteSpace=wrap;rounded=0;" vertex="1" parent="2BnCc7chY5cuEa0IheuL-62">
          <mxGeometry x="465" y="13" width="40" height="20" as="geometry" />
        </mxCell>
        <mxCell id="2BnCc7chY5cuEa0IheuL-65" value="&lt;font style=&quot;font-size: 12px&quot;&gt;&lt;b&gt;About Us&lt;/b&gt;&lt;/font&gt;" style="text;html=1;strokeColor=none;fillColor=none;align=center;verticalAlign=middle;whiteSpace=wrap;rounded=0;" vertex="1" parent="2BnCc7chY5cuEa0IheuL-62">
          <mxGeometry x="511" y="13" width="65" height="20" as="geometry" />
        </mxCell>
        <mxCell id="2BnCc7chY5cuEa0IheuL-66" value="&lt;font style=&quot;font-size: 12px&quot;&gt;&lt;b&gt;Fun Stuff&lt;/b&gt;&lt;/font&gt;" style="text;html=1;strokeColor=none;fillColor=none;align=center;verticalAlign=middle;whiteSpace=wrap;rounded=0;" vertex="1" parent="2BnCc7chY5cuEa0IheuL-62">
          <mxGeometry x="588" y="13" width="58" height="20" as="geometry" />
        </mxCell>
        <mxCell id="2BnCc7chY5cuEa0IheuL-67" value="&lt;b&gt;Agency Information&lt;/b&gt;" style="text;html=1;strokeColor=none;fillColor=none;align=center;verticalAlign=middle;whiteSpace=wrap;rounded=0;" vertex="1" parent="2BnCc7chY5cuEa0IheuL-62">
          <mxGeometry x="651" y="13" width="135" height="20" as="geometry" />
        </mxCell>
        <mxCell id="2BnCc7chY5cuEa0IheuL-68" value="&lt;b&gt;Sign Up / Sign In&lt;/b&gt;" style="text;html=1;strokeColor=none;fillColor=none;align=center;verticalAlign=middle;whiteSpace=wrap;rounded=0;" vertex="1" parent="2BnCc7chY5cuEa0IheuL-62">
          <mxGeometry x="786" y="13" width="107" height="20" as="geometry" />
        </mxCell>
        <mxCell id="2BnCc7chY5cuEa0IheuL-69" value="&lt;font style=&quot;font-size: 36px&quot; face=&quot;Georgia&quot;&gt;A&lt;/font&gt;&lt;font style=&quot;font-size: 24px&quot; face=&quot;Georgia&quot;&gt;ce&lt;/font&gt;" style="text;html=1;strokeColor=none;fillColor=none;align=center;verticalAlign=middle;whiteSpace=wrap;rounded=0;" vertex="1" parent="2BnCc7chY5cuEa0IheuL-62">
          <mxGeometry x="28" y="1" width="41" height="38" as="geometry" />
        </mxCell>
        <mxCell id="2BnCc7chY5cuEa0IheuL-70" style="edgeStyle=orthogonalEdgeStyle;rounded=0;orthogonalLoop=1;jettySize=auto;html=1;exitX=0.5;exitY=1;exitDx=0;exitDy=0;" edge="1" parent="2BnCc7chY5cuEa0IheuL-62" source="2BnCc7chY5cuEa0IheuL-66" target="2BnCc7chY5cuEa0IheuL-66">
          <mxGeometry relative="1" as="geometry" />
        </mxCell>
        <mxCell id="2BnCc7chY5cuEa0IheuL-71" value="I am a Care Giver" style="text;html=1;strokeColor=none;fillColor=none;align=center;verticalAlign=middle;whiteSpace=wrap;rounded=0;fontStyle=1" vertex="1" parent="1">
          <mxGeometry x="421" y="-409" width="143.13" height="20.5" as="geometry" />
        </mxCell>
        <mxCell id="2BnCc7chY5cuEa0IheuL-73" value="Are you a Care Giver?" style="text;html=1;strokeColor=none;fillColor=none;align=center;verticalAlign=middle;whiteSpace=wrap;rounded=0;fontStyle=1" vertex="1" parent="1">
          <mxGeometry x="251" y="-412" width="143.13" height="20.5" as="geometry" />
        </mxCell>
      </root>
    </mxGraphModel>
  </diagram>
</mxfile>
